<svg width="48" height="47" viewBox="0 0 48 47" fill="none" xmlns="http://www.w3.org/2000/svg">
<path d="M2 2.1089H10L15.36 28.8889C15.5429 29.8097 16.0438 30.6368 16.7751 31.2255C17.5064 31.8142 18.4214 32.1269 19.36 32.1089H38.8C39.7386 32.1269 40.6536 31.8142 41.3849 31.2255C42.1162 30.6368 42.6171 29.8097 42.8 28.8889L46 12.1089H12M20 42.1089C20 43.2135 19.1046 44.1089 18 44.1089C16.8954 44.1089 16 43.2135 16 42.1089C16 41.0043 16.8954 40.1089 18 40.1089C19.1046 40.1089 20 41.0043 20 42.1089ZM42 42.1089C42 43.2135 41.1046 44.1089 40 44.1089C38.8954 44.1089 38 43.2135 38 42.1089C38 41.0043 38.8954 40.1089 40 40.1089C41.1046 40.1089 42 41.0043 42 42.1089Z" stroke="#A83028" stroke-width="4" stroke-linecap="round" stroke-linejoin="round"/>
</svg>
