<?xml version="1.0" encoding="utf-8"?>
<!-- Generator: Adobe Illustrator 27.9.1, SVG Export Plug-In . SVG Version: 6.00 Build 0)  -->
<svg version="1.1" xmlns="http://www.w3.org/2000/svg" xmlns:xlink="http://www.w3.org/1999/xlink" x="0px" y="0px"
	 viewBox="0 0 346.1 363.1" style="enable-background:new 0 0 346.1 363.1;" xml:space="preserve">
<style type="text/css">
	.st0{fill:#D39A88;}
	.st1{fill:#A83028;}
	.st2{fill:#B04737;}
</style>
<g id="Layer_1">
</g>
<g id="Layer_2">
	<polygon class="st0" points="216.77,135.43 129.2,135.69 173.05,59.72 	"/>
	<polygon class="st1" points="158.11,184.03 158.11,253.43 61.21,253.43 101.28,184.03 	"/>
	<polygon class="st2" points="284.89,253.43 190.17,253.43 190.17,184.03 244.82,184.03 	"/>
	<g>
		<path class="st1" d="M110.72,280.22c0-0.54,0.13-1.04,0.39-1.5c0.25-0.46,0.59-0.86,1-1.19c0.41-0.33,0.9-0.59,1.46-0.79
			c0.56-0.19,1.16-0.29,1.79-0.29h29.05c0.67,0,1.29,0.1,1.87,0.31c0.58,0.2,1.07,0.48,1.48,0.83c0.42,0.34,0.74,0.75,0.98,1.19
			c0.24,0.45,0.36,0.93,0.36,1.44v9.19c0,0.54-0.13,1.04-0.38,1.5c-0.26,0.46-0.59,0.86-1,1.19c-0.42,0.33-0.91,0.59-1.48,0.79
			c-0.57,0.19-1.16,0.29-1.77,0.29h-4.88l10,10.19h-7.18l-10.19-10.19h-11.73v-4.58h22.69v-7.58h-26.51v22.35h-5.94V280.22z"/>
		<path class="st1" d="M206.48,280.14c0.44-1.18,1.13-2.09,2.06-2.73c0.93-0.64,2.15-0.96,3.68-0.96h10.82
			c1.59,0,2.87,0.33,3.83,0.98c0.95,0.65,1.66,1.56,2.1,2.71l9.09,23.23h-6.27l-2.97-7.69h-18.28l1.48-4.58h15.12l-3.78-10.08
			h-11.29l-8.42,22.35h-6.32L206.48,280.14z"/>
		<path class="st1" d="M158.75,298.61h12.53v-17.77h-12.53v-4.58h32.05v4.58h-13.33v17.77h13.33v4.58h-32.05V298.61z"/>
		<path class="st1" d="M78.44,281.03H61.21v-4.58h40.34v4.58H84.38v22.35h-5.94V281.03z"/>
		<path class="st1" d="M244.59,284.14h5.94v14.66h28.43v-17.77h-34.36v-4.58h35.46c0.67,0,1.3,0.1,1.89,0.31
			c0.59,0.2,1.1,0.48,1.53,0.83c0.43,0.34,0.77,0.75,1.03,1.19c0.25,0.45,0.38,0.93,0.38,1.44v19.35c0,0.54-0.12,1.04-0.36,1.5
			c-0.24,0.46-0.57,0.86-1,1.21c-0.43,0.34-0.93,0.61-1.48,0.81c-0.56,0.19-1.16,0.29-1.79,0.29h-35.65V284.14z"/>
	</g>
</g>
</svg>
